<?xml version="1.0" encoding="utf-8"?>
<!-- Generator: Adobe Illustrator 28.3.0, SVG Export Plug-In . SVG Version: 6.00 Build 0)  -->
<svg version="1.1" id="Layer_1" xmlns="http://www.w3.org/2000/svg" xmlns:xlink="http://www.w3.org/1999/xlink" x="0px" y="0px"
	 viewBox="0 0 216 216" style="enable-background:new 0 0 216 216;" xml:space="preserve">
<style type="text/css">
	.st0{fill:#E7C11F;}
	.st1{fill:url(#SVGID_1_);}
	.st2{fill:url(#SVGID_00000083052076488440748410000013699646453180269759_);}
	.st3{fill:url(#SVGID_00000028282762262536849100000010600235105140779953_);}
</style>
<g>
	<circle class="st0" cx="108.1" cy="108" r="96.5"/>
	
		<linearGradient id="SVGID_1_" gradientUnits="userSpaceOnUse" x1="66.5151" y1="109.7513" x2="149.6176" y2="109.7513" gradientTransform="matrix(1 0 0 -1 0 218)">
		<stop  offset="0" style="stop-color:#F3F3F3"/>
		<stop  offset="0.8895" style="stop-color:#F3F3F3"/>
		<stop  offset="0.9091" style="stop-color:#F3F3F3"/>
		<stop  offset="1" style="stop-color:#F3F3F3"/>
		<stop  offset="1" style="stop-color:#FFFFFF"/>
		<stop  offset="1" style="stop-color:#FFFFFF"/>
		<stop  offset="1" style="stop-color:#E8E7E7"/>
	</linearGradient>
	<path class="st1" d="M143.4,48.4l-70.1-0.3c-3.4,0-6.3,2.8-6.3,6.2l-0.5,107.3c0,3.4,2.8,6.3,6.2,6.3l57.1,0.3l-1.5-15.2
		c-0.1-3.4,3.2-7,6.6-7l14.2-0.6L129.8,168v0.3l19.3-22.6l0.5-90.8C149.7,51.2,146.9,48.4,143.4,48.4z M136.9,132.6H79.3
		c-0.8,0-1.5-0.7-1.5-1.5s0.7-1.5,1.5-1.5h57.6c0.8,0,1.5,0.7,1.5,1.5C138.4,132,137.7,132.6,136.9,132.6z M136.9,116.8H79.3
		c-0.8,0-1.5-0.7-1.5-1.5s0.7-1.5,1.5-1.5h57.6c0.8,0,1.5,0.7,1.5,1.5C138.4,116.2,137.7,116.8,136.9,116.8z M136.9,104H79.3
		c-0.8,0-1.5-0.7-1.5-1.5s0.7-1.5,1.5-1.5h57.6c0.8,0,1.5,0.7,1.5,1.5S137.7,104,136.9,104z M136.9,91.6H79.3
		c-0.8,0-1.5-0.7-1.5-1.5s0.7-1.5,1.5-1.5h57.6c0.8,0,1.5,0.7,1.5,1.5S137.7,91.6,136.9,91.6z M136.9,77.2H79.3
		c-0.8,0-1.5-0.7-1.5-1.5s0.7-1.5,1.5-1.5h57.6c0.8,0,1.5,0.7,1.5,1.5S137.7,77.2,136.9,77.2z"/>
	
		<linearGradient id="SVGID_00000096775358035401516870000017367080872904148374_" gradientUnits="userSpaceOnUse" x1="130.3151" y1="49.8513" x2="130.3151" y2="49.8513" gradientTransform="matrix(1 0 0 -1 0 218)">
		<stop  offset="0" style="stop-color:#F3F3F3"/>
		<stop  offset="0.8895" style="stop-color:#F3F3F3"/>
		<stop  offset="0.9091" style="stop-color:#F3F3F3"/>
		<stop  offset="1" style="stop-color:#F3F3F3"/>
		<stop  offset="1" style="stop-color:#FFFFFF"/>
		<stop  offset="1" style="stop-color:#FFFFFF"/>
		<stop  offset="1" style="stop-color:#E8E7E7"/>
	</linearGradient>
	<path style="fill:url(#SVGID_00000096775358035401516870000017367080872904148374_);" d="M130.3,168.1"/>
	
		<linearGradient id="SVGID_00000036240274823250803360000008818073635106752695_" gradientUnits="userSpaceOnUse" x1="129.4874" y1="61.3513" x2="149.2029" y2="61.3513" gradientTransform="matrix(1 0 0 -1 0 218)">
		<stop  offset="0" style="stop-color:#F3F3F3"/>
		<stop  offset="0.8895" style="stop-color:#F3F3F3"/>
		<stop  offset="0.9091" style="stop-color:#F3F3F3"/>
		<stop  offset="1" style="stop-color:#F3F3F3"/>
		<stop  offset="1" style="stop-color:#FFFFFF"/>
		<stop  offset="1" style="stop-color:#FFFFFF"/>
		<stop  offset="1" style="stop-color:#E8E7E7"/>
	</linearGradient>
	<path style="fill:url(#SVGID_00000036240274823250803360000008818073635106752695_);" d="M135.6,146.5c-3.4,0.1-6.2,2.9-6.1,6.3
		l0.2,15.2h1l18.4-22.8L135.6,146.5z"/>
</g>
</svg>
