<?xml version="1.0" encoding="utf-8"?>
<!-- Generator: Adobe Illustrator 28.3.0, SVG Export Plug-In . SVG Version: 6.00 Build 0)  -->
<svg version="1.1" id="Layer_1" xmlns="http://www.w3.org/2000/svg" xmlns:xlink="http://www.w3.org/1999/xlink" x="0px" y="0px"
	 viewBox="0 0 216 216" style="enable-background:new 0 0 216 216;" xml:space="preserve">
<style type="text/css">
	.st0{fill:#E7C11F;}
	.st1{fill:url(#SVGID_1_);}
	.st2{fill:url(#SVGID_00000001665619522768860200000000224962148641729438_);}
	.st3{fill:none;}
	.st4{fill:url(#SVGID_00000039826323255440935890000007966951192233379207_);}
	.st5{fill:url(#SVGID_00000146492432886418194690000009048583291550072226_);}
</style>
<g>
	<circle class="st0" cx="108.1" cy="108" r="96.5"/>
	
		<linearGradient id="SVGID_1_" gradientUnits="userSpaceOnUse" x1="64.5151" y1="149.0513" x2="64.5151" y2="149.0513" gradientTransform="matrix(1 0 0 -1 0 218)">
		<stop  offset="0" style="stop-color:#F3F3F3"/>
		<stop  offset="0.8895" style="stop-color:#F3F3F3"/>
		<stop  offset="0.9091" style="stop-color:#F3F3F3"/>
		<stop  offset="1" style="stop-color:#F3F3F3"/>
		<stop  offset="1" style="stop-color:#FFFFFF"/>
		<stop  offset="1" style="stop-color:#FFFFFF"/>
		<stop  offset="1" style="stop-color:#E8E7E7"/>
	</linearGradient>
	<path class="st1" d="M64.5,68.9"/>
	
		<linearGradient id="SVGID_00000060733531678240533770000018408238705852074133_" gradientUnits="userSpaceOnUse" x1="156.0151" y1="149.7513" x2="156.0151" y2="149.7513" gradientTransform="matrix(1 0 0 -1 0 218)">
		<stop  offset="0" style="stop-color:#F3F3F3"/>
		<stop  offset="0.8895" style="stop-color:#F3F3F3"/>
		<stop  offset="0.9091" style="stop-color:#F3F3F3"/>
		<stop  offset="1" style="stop-color:#F3F3F3"/>
		<stop  offset="1" style="stop-color:#FFFFFF"/>
		<stop  offset="1" style="stop-color:#FFFFFF"/>
		<stop  offset="1" style="stop-color:#E8E7E7"/>
	</linearGradient>
	<path style="fill:url(#SVGID_00000060733531678240533770000018408238705852074133_);" d="M156,68.2"/>
	<path class="st3" d="M151.3,78.3H70.7c-4.8,0-8.7,3.9-8.7,8.7v27.5c0,4.8,3.9,8.7,8.7,8.7h4.4h7h55h7h7.1c4.8,0,8.7-3.9,8.7-8.7V87
		C160.1,82.2,156.1,78.3,151.3,78.3z"/>
	
		<linearGradient id="SVGID_00000137812172583787727090000016879515293173064375_" gradientUnits="userSpaceOnUse" x1="53.5149" y1="111.9513" x2="170.5168" y2="111.9513" gradientTransform="matrix(1 0 0 -1 0 218)">
		<stop  offset="0" style="stop-color:#F3F3F3"/>
		<stop  offset="0.8895" style="stop-color:#F3F3F3"/>
		<stop  offset="0.9091" style="stop-color:#F3F3F3"/>
		<stop  offset="1" style="stop-color:#F3F3F3"/>
		<stop  offset="1" style="stop-color:#FFFFFF"/>
		<stop  offset="1" style="stop-color:#FFFFFF"/>
		<stop  offset="1" style="stop-color:#E8E7E7"/>
	</linearGradient>
	<path style="fill:url(#SVGID_00000137812172583787727090000016879515293173064375_);" d="M161.2,68.1h-21.6
		c1.5-1.1,2.4-2.9,2.4-4.9v-3.7c0-3.2-2.3-5.8-5.4-6.3c-0.3,0-0.6-0.1-0.9-0.1l-47.2-0.3c-3.5,0-6.3,2.8-6.4,6.3v3.7
		c0,2.2,1.1,4.1,2.8,5.3h-22c-5.2,0-9.4,4.2-9.4,9.4v72.3c0,5.2,4.2,9.4,9.4,9.4h98.2c5.2,0,9.4-4.2,9.4-9.4V77.5
		C170.6,72.3,166.4,68.1,161.2,68.1z M90.4,56.6h44c2.3,0,4.2,1.9,4.2,4.2c0,2.3-1.9,4.2-4.2,4.2h-44c-2.3,0-4.2-1.9-4.2-4.2
		C86.2,58.4,88.1,56.6,90.4,56.6z M160.1,114.5c0,4.8-3.9,8.7-8.7,8.7h-7.1v7.2c0,1.9-1.6,3.5-3.5,3.5s-3.5-1.6-3.5-3.5v-7.2h-55
		v5.8c0,1.9-1.6,3.5-3.5,3.5s-3.5-1.6-3.5-3.5v-5.8h-4.4c-4.8,0-8.7-3.9-8.7-8.7V87c0-4.8,3.9-8.7,8.7-8.7h80.6
		c4.8,0,8.7,3.9,8.7,8.7L160.1,114.5L160.1,114.5z"/>
	
		<linearGradient id="SVGID_00000014633588122526325240000005706381570418433163_" gradientUnits="userSpaceOnUse" x1="64.415" y1="117.2013" x2="157.715" y2="117.2013" gradientTransform="matrix(1 0 0 -1 0 218)">
		<stop  offset="0" style="stop-color:#F3F3F3"/>
		<stop  offset="0.8895" style="stop-color:#F3F3F3"/>
		<stop  offset="0.9091" style="stop-color:#F3F3F3"/>
		<stop  offset="1" style="stop-color:#F3F3F3"/>
		<stop  offset="1" style="stop-color:#FFFFFF"/>
		<stop  offset="1" style="stop-color:#FFFFFF"/>
		<stop  offset="1" style="stop-color:#E8E7E7"/>
	</linearGradient>
	<path style="fill:url(#SVGID_00000014633588122526325240000005706381570418433163_);" d="M149.4,79.9H72.7c-4.6,0-8.3,3.6-8.3,8.1
		v25.5c0,4.5,3.7,8.1,8.3,8.1h4.2h7.3h58.4h6.8c4.6,0,8.3-3.6,8.3-8.1V88C157.7,83.5,154,79.9,149.4,79.9z"/>
</g>
</svg>
