<?xml version="1.0" encoding="utf-8"?>
<!-- Generator: Adobe Illustrator 28.3.0, SVG Export Plug-In . SVG Version: 6.00 Build 0)  -->
<svg version="1.1" id="Layer_1" xmlns="http://www.w3.org/2000/svg" xmlns:xlink="http://www.w3.org/1999/xlink" x="0px" y="0px"
	 viewBox="0 0 216 216" style="enable-background:new 0 0 216 216;" xml:space="preserve">
<style type="text/css">
	.st0{fill:#E7C11F;}
	.st1{fill:url(#SVGID_1_);}
	.st2{fill:url(#SVGID_00000003064108453888768450000009676701467008557958_);}
	.st3{fill:url(#SVGID_00000108994874848806772850000002024112195502380964_);}
	.st4{fill:url(#SVGID_00000173136909311444099720000000827110845372987523_);}
	.st5{fill:url(#SVGID_00000063617345487644963210000007904771877418274742_);}
</style>
<g>
	<circle class="st0" cx="108.1" cy="108" r="96.5"/>
	
		<linearGradient id="SVGID_1_" gradientUnits="userSpaceOnUse" x1="130.3" y1="742.1" x2="130.3" y2="742.1" gradientTransform="matrix(1 0 0 1 0 -574)">
		<stop  offset="0" style="stop-color:#F3F3F3"/>
		<stop  offset="0.8895" style="stop-color:#F3F3F3"/>
		<stop  offset="0.9091" style="stop-color:#F3F3F3"/>
		<stop  offset="1" style="stop-color:#F3F3F3"/>
		<stop  offset="1" style="stop-color:#FFFFFF"/>
		<stop  offset="1" style="stop-color:#FFFFFF"/>
		<stop  offset="1" style="stop-color:#E8E7E7"/>
	</linearGradient>
	<path class="st1" d="M130.3,168.1"/>
	<g>
		
			<linearGradient id="SVGID_00000124840770042958630510000000516283815187302051_" gradientUnits="userSpaceOnUse" x1="66.5" y1="667.6617" x2="129.5" y2="667.6617" gradientTransform="matrix(1 0 0 1 0 -574)">
			<stop  offset="0" style="stop-color:#F3F3F3"/>
			<stop  offset="0.8895" style="stop-color:#F3F3F3"/>
			<stop  offset="0.9091" style="stop-color:#F3F3F3"/>
			<stop  offset="1" style="stop-color:#F3F3F3"/>
			<stop  offset="1" style="stop-color:#FFFFFF"/>
			<stop  offset="1" style="stop-color:#FFFFFF"/>
			<stop  offset="1" style="stop-color:#E8E7E7"/>
		</linearGradient>
		<path style="fill:url(#SVGID_00000124840770042958630510000000516283815187302051_);" d="M124.8,48.3l-53.1-0.2
			c-2.6,0-4.8,2.1-4.8,4.7l-0.4,81.3c0,2.6,2.1,4.8,4.7,4.8l43.3,0.2l-1.1-11.5c-0.1-2.6,2.4-5.3,5-5.3l10.8-0.5L114.5,139v0.2
			l14.6-17.1l0.4-68.8C129.6,50.5,127.5,48.3,124.8,48.3z M119.9,112.2H76.2c-0.6,0-1.1-0.5-1.1-1.1s0.5-1.1,1.1-1.1h43.7
			c0.6,0,1.1,0.5,1.1,1.1C121,111.7,120.5,112.2,119.9,112.2z M119.9,100.2H76.2c-0.6,0-1.1-0.5-1.1-1.1s0.5-1.1,1.1-1.1h43.7
			c0.6,0,1.1,0.5,1.1,1.1C121,99.7,120.5,100.2,119.9,100.2z M119.9,90.5H76.2c-0.6,0-1.1-0.5-1.1-1.1c0-0.6,0.5-1.1,1.1-1.1h43.7
			c0.6,0,1.1,0.5,1.1,1.1C121,89.9,120.5,90.5,119.9,90.5z M119.9,81.1H76.2c-0.6,0-1.1-0.5-1.1-1.1c0-0.6,0.5-1.1,1.1-1.1h43.7
			c0.6,0,1.1,0.5,1.1,1.1C121,80.5,120.5,81.1,119.9,81.1z M119.9,70.2H76.2c-0.6,0-1.1-0.5-1.1-1.1c0-0.6,0.5-1.1,1.1-1.1h43.7
			c0.6,0,1.1,0.5,1.1,1.1C121,69.6,120.5,70.2,119.9,70.2z"/>
		
			<linearGradient id="SVGID_00000106147982675296333400000005371652345715701421_" gradientUnits="userSpaceOnUse" x1="114.2583" y1="704.3538" x2="129.2046" y2="704.3538" gradientTransform="matrix(1 0 0 1 0 -574)">
			<stop  offset="0" style="stop-color:#F3F3F3"/>
			<stop  offset="0.8895" style="stop-color:#F3F3F3"/>
			<stop  offset="0.9091" style="stop-color:#F3F3F3"/>
			<stop  offset="1" style="stop-color:#F3F3F3"/>
			<stop  offset="1" style="stop-color:#FFFFFF"/>
			<stop  offset="1" style="stop-color:#FFFFFF"/>
			<stop  offset="1" style="stop-color:#E8E7E7"/>
		</linearGradient>
		<path style="fill:url(#SVGID_00000106147982675296333400000005371652345715701421_);" d="M118.9,122.7c-2.6,0.1-4.7,2.2-4.6,4.8
			l0.2,11.5h0.8l13.9-17.3L118.9,122.7z"/>
	</g>
	<g>
		<path class="st0" d="M153.4,78.5c0.1-3.2-2.3-5.6-5.3-5.6l-60.3-0.3c-2.9,0-5.4,2.4-5.4,5.3l-0.4,92.3c0,2.9,2.4,5.4,5.3,5.4
			l59.1,0.2c3.6,0,6.4-2.8,6.5-6.4L153.4,78.5z M136.3,175.7v0.3"/>
	</g>
	<g>
		
			<linearGradient id="SVGID_00000047739550973657875330000015560064365041689760_" gradientUnits="userSpaceOnUse" x1="87.381" y1="121.7102" x2="150.381" y2="121.7102">
			<stop  offset="0" style="stop-color:#F3F3F3"/>
			<stop  offset="0.8895" style="stop-color:#F3F3F3"/>
			<stop  offset="0.9091" style="stop-color:#F3F3F3"/>
			<stop  offset="1" style="stop-color:#F3F3F3"/>
			<stop  offset="1" style="stop-color:#FFFFFF"/>
			<stop  offset="1" style="stop-color:#FFFFFF"/>
			<stop  offset="1" style="stop-color:#E8E7E7"/>
		</linearGradient>
		<path style="fill:url(#SVGID_00000047739550973657875330000015560064365041689760_);" d="M145.7,76.4l-53.1-0.2
			c-2.6,0-4.8,2.1-4.8,4.7l-0.4,81.3c0,2.6,2.1,4.8,4.7,4.8l43.3,0.2l-1.1-11.5c-0.1-2.6,2.4-5.3,5-5.3l10.8-0.5L135.4,167v0.2
			l14.6-17.1l0.4-68.8C150.5,78.5,148.3,76.4,145.7,76.4z M140.8,140.2H97.1c-0.6,0-1.1-0.5-1.1-1.1s0.5-1.1,1.1-1.1h43.7
			c0.6,0,1.1,0.5,1.1,1.1C141.9,139.8,141.4,140.2,140.8,140.2z M140.8,128.2H97.1c-0.6,0-1.1-0.5-1.1-1.1s0.5-1.1,1.1-1.1h43.7
			c0.6,0,1.1,0.5,1.1,1.1C141.9,127.8,141.4,128.2,140.8,128.2z M140.8,118.5H97.1c-0.6,0-1.1-0.5-1.1-1.1s0.5-1.1,1.1-1.1h43.7
			c0.6,0,1.1,0.5,1.1,1.1S141.4,118.5,140.8,118.5z M140.8,109.1H97.1c-0.6,0-1.1-0.5-1.1-1.1c0-0.6,0.5-1.1,1.1-1.1h43.7
			c0.6,0,1.1,0.5,1.1,1.1C141.9,108.6,141.4,109.1,140.8,109.1z M140.8,98.2H97.1c-0.6,0-1.1-0.5-1.1-1.1c0-0.6,0.5-1.1,1.1-1.1
			h43.7c0.6,0,1.1,0.5,1.1,1.1C141.9,97.7,141.4,98.2,140.8,98.2z"/>
		
			<linearGradient id="SVGID_00000077318159771287165890000015075357883138078115_" gradientUnits="userSpaceOnUse" x1="135.1393" y1="732.4022" x2="150.0856" y2="732.4022" gradientTransform="matrix(1 0 0 1 0 -574)">
			<stop  offset="0" style="stop-color:#F3F3F3"/>
			<stop  offset="0.8895" style="stop-color:#F3F3F3"/>
			<stop  offset="0.9091" style="stop-color:#F3F3F3"/>
			<stop  offset="1" style="stop-color:#F3F3F3"/>
			<stop  offset="1" style="stop-color:#FFFFFF"/>
			<stop  offset="1" style="stop-color:#FFFFFF"/>
			<stop  offset="1" style="stop-color:#E8E7E7"/>
		</linearGradient>
		<path style="fill:url(#SVGID_00000077318159771287165890000015075357883138078115_);" d="M139.8,150.7c-2.6,0.1-4.7,2.2-4.6,4.8
			l0.2,11.5h0.8l13.9-17.3L139.8,150.7z"/>
	</g>
</g>
</svg>
