<?xml version="1.0" encoding="utf-8"?>
<!-- Generator: Adobe Illustrator 28.3.0, SVG Export Plug-In . SVG Version: 6.00 Build 0)  -->
<svg version="1.1" id="Layer_1" xmlns="http://www.w3.org/2000/svg" xmlns:xlink="http://www.w3.org/1999/xlink" x="0px" y="0px"
	 viewBox="0 0 216 216" style="enable-background:new 0 0 216 216;" xml:space="preserve">
<style type="text/css">
	.st0{fill:#E7C11F;}
	.st1{fill:url(#SVGID_1_);}
	.st2{fill:url(#SVGID_00000127756961998515022720000004776091424877904287_);}
</style>
<g>
	<circle class="st0" cx="108.1" cy="108" r="96.5"/>
	
		<linearGradient id="SVGID_1_" gradientUnits="userSpaceOnUse" x1="69.715" y1="96.4013" x2="146.5316" y2="96.4013" gradientTransform="matrix(1 0 0 -1 0 218)">
		<stop  offset="0" style="stop-color:#F3F3F3"/>
		<stop  offset="0.8895" style="stop-color:#F3F3F3"/>
		<stop  offset="0.9091" style="stop-color:#F3F3F3"/>
		<stop  offset="1" style="stop-color:#F3F3F3"/>
		<stop  offset="1" style="stop-color:#FFFFFF"/>
		<stop  offset="1" style="stop-color:#FFFFFF"/>
		<stop  offset="1" style="stop-color:#E8E7E7"/>
	</linearGradient>
	<path class="st1" d="M146.5,148.7v-65c0-2.5-1.9-4.6-4.1-4.6h-2.8H73.9c-2.3,0-4.2,2.1-4.2,4.6v64c0,2.5,0,15.1,12.5,16.3h50
		c3,0,5.4-0.5,7.3-1.3C147.2,159.4,146.5,150.8,146.5,148.7z M84.4,159.1h-0.2c-2,0-3.6-2.7-3.6-5.9V90c0-3.3,1.6-5.9,3.6-5.9h0.2
		c1.2,0,2.3,1,2.9,2.5v70.1C86.7,158.1,85.6,159.1,84.4,159.1z M100.5,159.1h-0.2c-2,0-3.6-2.7-3.6-5.9V90c0-3.3,1.6-5.9,3.6-5.9
		h0.2c1.2,0,2.3,1,2.9,2.5v70.1C102.8,158.1,101.7,159.1,100.5,159.1z M117.3,159.1h-0.2c-2,0-3.6-2.7-3.6-5.9V90
		c0-3.3,1.6-5.9,3.6-5.9h0.2c1.2,0,2.3,1,2.9,2.5v70.1C119.6,158.1,118.5,159.1,117.3,159.1z M132.8,159.1h-0.2
		c-2,0-3.6-2.7-3.6-5.9V90c0-3.3,1.6-5.9,3.6-5.9h0.2c1.2,0,2.3,1,2.9,2.5v70.1C135,158.1,134,159.1,132.8,159.1z"/>
	
		<linearGradient id="SVGID_00000142175960980736824070000009276460776498804113_" gradientUnits="userSpaceOnUse" x1="65.715" y1="154.1013" x2="150.4151" y2="154.1013" gradientTransform="matrix(1 0 0 -1 0 218)">
		<stop  offset="0" style="stop-color:#F3F3F3"/>
		<stop  offset="0.8895" style="stop-color:#F3F3F3"/>
		<stop  offset="0.9091" style="stop-color:#F3F3F3"/>
		<stop  offset="1" style="stop-color:#F3F3F3"/>
		<stop  offset="1" style="stop-color:#FFFFFF"/>
		<stop  offset="1" style="stop-color:#FFFFFF"/>
		<stop  offset="1" style="stop-color:#E8E7E7"/>
	</linearGradient>
	<path style="fill:url(#SVGID_00000142175960980736824070000009276460776498804113_);" d="M146.9,66.1h-4.2h-29.2
		c0-0.3,0.1-0.6,0.1-0.9v-7.5c0-1.2-0.4-2.3-1-3.1c-1-1.4-2.6-2.3-4.5-2.3c-3,0-5.5,2.5-5.5,5.5v7.5c0,0.3,0,0.6,0.1,0.9H69.2
		c-1.9,0-3.5,2.1-3.5,4.6s1.6,4.6,3.5,4.6h73.5h4.2c1.9,0,3.5-2.1,3.5-4.6C150.4,68.1,148.9,66.1,146.9,66.1z"/>
</g>
</svg>
